<?xml version="1.0" encoding="utf-8"?>
<!-- Generator: Adobe Illustrator 23.0.1, SVG Export Plug-In . SVG Version: 6.00 Build 0)  -->
<svg version="1.1" id="Layer_1" xmlns="http://www.w3.org/2000/svg" xmlns:xlink="http://www.w3.org/1999/xlink" x="0px" y="0px"
	 viewBox="0 0 400 300" style="enable-background:new 0 0 400 300;" xml:space="preserve">
<style type="text/css">
	.st0{fill:none;}
</style>
<g>
	<g>
		<g>
			<g>
				<path class="st0" d="M189,73.3c-10.5,0-21,0.3-31.5,1.2c-5.1,0.6-10.5,1.2-15.6,2.4c-2.7,0.6-5.1,1.5-8.1,3.3h-0.3l-0.3,0.3
					c-0.9,0.9-0.3,0.3-0.6,0.6l0,0l-0.3,0.6c-0.3,0.3-0.9,1.2-1.5,1.8c-0.9,1.5-1.5,2.4-2.1,3.6c-4.5,9-7.8,18-10.8,26.4
					c-3,8.7-5.4,16.8-6.9,24.9c-0.3,2.1-0.9,3.9-0.9,6c-0.3,1.8-0.6,3.9-0.3,5.7c0,0.9,0,1.8,0.3,2.7c0.3,0.9,0.3,1.8,0.6,3v0.6v0.3
					v0.3l0,0c0-0.3,0.3,0.6,0.3,0.6l0.6,1.2c0.6,0.9,1.5,2.1,2.1,2.7c2.7,2.4,5.4,3.9,7.8,5.4c2.4,1.5,4.8,2.4,6.9,3.6
					c4.2,2.1,7.5,3.3,9.9,4.2c2.4,0.9,3.6,1.2,3.6,1.2s-4.5-2.7-12-7.8c-1.8-1.2-3.9-2.7-6-4.5c-2.1-1.8-4.2-3.6-6-5.7
					c-0.6-0.6-0.3-0.6-0.6-1.2l-0.3-0.9l0,0l0,0l0,0v-0.3v-0.6c0-0.6,0-1.5,0-2.1c0-0.9,0.3-1.5,0.3-2.4c0.3-3.3,0.6-6.9,1.5-10.5
					c1.5-7.5,3.6-15.6,6.6-23.7c3-8.4,6.3-17.1,10.5-25.5c0.6-0.9,1.2-2.4,1.5-2.7c0.3-0.3,0.3-0.6,0.6-1.2l0.6-0.6h0.3
					c1.5-0.9,3.6-1.8,6-2.1c4.5-1.2,9.6-1.8,14.4-2.1c9.9-0.9,20.4-1.2,30.6-1.2c10.5,0,20.7,0.3,30.6,0.9c1.8,0.3,3.6,0.3,5.4,0.6
					c-0.6-2.4-0.9-4.8-0.9-7.5c-1.2,0-2.4-0.3-3.6-0.3C209.9,73.3,199.5,73.3,189,73.3z"/>
			</g>
		</g>
		<g>
			<g>
				<path class="st0" d="M253.7,115.8c3,8.4,5.1,16.2,6.6,23.7c0.3,1.8,0.6,3.6,0.9,5.4c0,0.9,0.3,1.8,0.3,2.7c0,0.9,0,1.5,0.3,2.4
					c0.3,1.5,0.3,3.3,0.3,4.8v0.6l0,0c0,0,0,0.3,0,0.6c-0.3,0.6-0.6,0.9-0.9,1.5c-3.6,4.2-8.4,7.8-12,10.2c-7.5,5.4-12,8.1-12,8.1
					s1.2-0.6,3.6-1.5c2.4-0.9,5.7-2.4,9.9-4.2c4.2-2.1,9.3-4.2,14.7-9c0.6-0.6,1.5-1.5,2.1-2.1c0.3-0.3,0.6-1.2,0.9-1.8l0.3-0.6
					v-0.3l0,0c0,0.3,0-0.3,0-0.3v-0.6c0.3-1.8,0.6-3.3,0.6-5.4c0-0.9,0-2.1,0-3s-0.3-1.8-0.3-3c-0.3-2.1-0.6-3.9-0.9-6
					c-1.5-7.5-3.6-15-6.3-23.1c-3-0.3-5.7-1.2-8.4-2.1C253.1,114,253.4,114.9,253.7,115.8z"/>
			</g>
		</g>
		<g>
			<g>
				<path d="M224.3,250.7c-1.8,1.5-3.3,3.3-4.8,4.8c-8.7,8.4-13.5,13.2-29.4,13.2h-1.5c-15.9,0-20.7-4.5-29.4-13.2
					c-1.5-1.5-3-3-4.8-4.5c-0.3-0.3-36.9-38.4-36.9-60.2h-7.2c0,24.9,37.2,63.5,39,65.3c1.8,1.5,3.3,3,4.8,4.5
					c9,8.7,15.6,15,34.5,15h1.5c18.9,0,25.5-6.3,34.5-15c1.5-1.5,3-3,4.8-4.8c1.5-1.5,39-40.5,39-65.3h-7.2
					C261.2,212.3,224.6,250.4,224.3,250.7z"/>
			</g>
		</g>
		<g>
			<g>
				<path d="M239,39.7c-3-1.2-6.6-2.1-9.9-2.1l-26.7-1.5c-10.5-0.3-17.4-0.3-26.4,0l-26.4,1.5c-12.9,0.6-24,9-28.2,21l-0.3,0.6
					l6.9,2.1V61c3-9,11.7-15.6,21.9-16.2l26.4-1.5c8.7-0.3,15.6-0.3,25.8,0l26.4,1.5c1.5,0,3.3,0.3,4.8,0.9
					C235.1,43.6,236.9,41.5,239,39.7z"/>
			</g>
		</g>
		<g>
			<g>
				<path d="M215.9,223.1l-1.8-6.9c0,0-15,3.6-24.9,3.6c-10.2,0-24.9-3.6-24.9-3.6l-1.8,6.9c0.6,0.3,15.6,3.6,26.7,3.6
					C200.1,226.7,215.3,223.1,215.9,223.1z"/>
			</g>
		</g>
		<g>
			<g>
				<path d="M315.1,72.4c0-26.4-21.6-47.9-47.9-47.9c-24,0-44.1,17.7-47.4,40.8c-12.3-0.6-22.8-0.9-22.8-0.9h-15.6
					c0,0-45.3,0.9-60.2,4.2C114,70,112,73,110.2,76c-1.8,3.3-16.2,57.2-14.4,85.1c1.8,27.9,41.4,25.8,41.4,25.8s16.8-6.6,45.6-6.6
					h12.9c28.8,0,45.6,6.6,45.6,6.6s39.6,2.1,41.4-25.8c0.6-11.4-1.2-27.3-3.9-42.3C299.6,113.7,315.1,94.9,315.1,72.4z M189,80.5
					c-10.5,0-20.7,0.3-30.6,1.2c-5.1,0.6-9.9,1.2-14.4,2.1c-2.1,0.6-4.5,1.2-6,2.1h-0.3l-0.6,0.6c-0.6,0.6-0.3,0.9-0.6,1.2
					c-0.3,0.6-0.9,1.8-1.5,2.7c-4.2,8.4-7.5,17.1-10.5,25.5c-2.7,8.4-5.1,16.5-6.6,23.7c-0.9,3.6-0.9,7.2-1.5,10.5
					c0,0.9-0.3,1.5-0.3,2.4c0,0.9,0,1.5,0,2.1v0.6v0.3l0,0l0,0l0,0l0.3,0.9c0.3,0.6,0.3,0.6,0.6,1.2c1.5,2.1,3.9,4.2,6,5.7
					c2.1,1.8,4.2,3,6,4.5c7.5,5.1,12,7.8,12,7.8s-1.2-0.6-3.6-1.2c-2.4-0.9-5.7-2.1-9.9-4.2c-2.1-0.9-4.5-2.1-6.9-3.6
					c-2.4-1.5-5.1-3-7.8-5.4c-0.6-0.6-1.5-1.8-2.1-2.7l-0.6-1.2c0,0-0.3-0.9-0.3-0.6l0,0v-0.3V156v-0.6c-0.3-0.9-0.3-1.8-0.6-3
					c0-0.9,0-1.8-0.3-2.7c-0.3-2.1,0-3.9,0.3-5.7c0.3-2.1,0.6-3.9,0.9-6c1.5-7.8,3.9-16.2,6.9-24.9s6.3-17.4,10.8-26.4
					c0.6-1.2,0.9-2.1,2.1-3.6c0.3-0.6,0.9-1.5,1.5-1.8l0.6-0.6l0,0c0.3-0.3-0.3,0.3,0.6-0.6l0.3-0.3l0.6-0.3
					c2.7-1.8,5.4-2.4,8.1-3.3c5.1-1.2,10.5-1.8,15.6-2.4c10.5-0.9,21-1.2,31.5-1.2c10.2,0,20.1,0.3,30.3,0.9c0,2.4,0.3,4.8,0.9,7.2
					h-0.3C209.9,80.5,199.5,80.5,189,80.5z M269,150c0,2.1-0.3,3.6-0.6,5.4v0.6c0,0,0,0.6,0,0.3l0,0v0.3l-0.3,0.6
					c-0.3,0.6-0.6,1.5-0.9,1.8c-0.6,0.9-1.2,1.8-2.1,2.1c-5.4,4.5-10.5,6.9-14.7,9c-4.2,2.1-7.5,3.3-9.9,4.2
					c-2.4,0.9-3.6,1.5-3.6,1.5s4.5-2.7,12-8.1c3.6-2.7,8.4-6,12-10.2c0.6-0.6,0.6-1.2,0.9-1.5c0.3-0.3,0-0.3,0-0.6l0,0v-0.6
					c0-1.8,0-3.6-0.3-4.8c0-0.9-0.3-1.5-0.3-2.4s-0.3-1.8-0.3-2.7c0-1.8-0.6-3.6-0.9-5.4c-1.2-6.6-3.3-13.5-5.7-20.7
					c2.7,0.6,5.4,1.2,8.1,1.5c2.1,6.3,3.6,12.3,4.8,18c0.3,2.1,0.6,3.9,0.9,6c0,0.9,0.3,1.8,0.3,3C269,147.9,269,149.1,269,150z
					 M267.2,114.3c-23.1,0-42-18.9-42-42s18.9-42,42-42c23.1,0,42,18.9,42,42S290.3,114.3,267.2,114.3z"/>
			</g>
		</g>
	</g>
	<g>
		<path d="M288.8,48.7L278,59.5c-3.3-1.5-6.9-2.4-10.5-2.4c-12.3,0-22.8,10.5-26.4,14.1c-0.6,0.9-0.6,2.1,0,2.7
			c2.1,2.1,6.6,6.6,12.3,9.9l-7.2,7.5l3,3l42.6-42.6L288.8,48.7z M268.1,69.1c-0.3,0-0.6,0-0.9,0c-2.1,0-3.6,1.5-3.6,3.6
			c0,0.3,0,0.6,0,0.9l-5.4,5.4c-1.2-1.8-1.8-3.9-1.8-6c0-6,4.8-10.8,10.8-10.8c2.4,0,4.5,0.6,6,1.8L268.1,69.1z"/>
		<path d="M293.6,71.2c-1.5-1.8-4.8-4.8-8.7-7.5l-7.2,7.2c0,0.6,0.3,1.2,0.3,1.8c0,6-4.8,10.8-10.8,10.8c-0.6,0-1.2,0-1.8-0.3
			l-4.2,4.2c1.8,0.6,3.9,0.9,6,0.9c12.3,0,22.8-10.2,26.4-14.1C294.5,73.3,294.5,72.1,293.6,71.2z"/>
	</g>
</g>
<g>
	<g>
		<g>
			<g>
				<path class="st0" d="M-140.7,111.6c-5.2,0-10.5,0.1-15.7,0.6c-2.5,0.3-5.2,0.6-7.8,1.2c-1.3,0.3-2.5,0.7-4,1.6h-0.1l-0.1,0.1
					c-0.4,0.4-0.1,0.1-0.3,0.3l0,0l-0.1,0.3c-0.1,0.1-0.4,0.6-0.7,0.9c-0.4,0.7-0.7,1.2-1,1.8c-2.2,4.5-3.9,9-5.4,13.2
					c-1.5,4.3-2.7,8.4-3.4,12.4c-0.1,1-0.4,1.9-0.4,3c-0.1,0.9-0.3,1.9-0.1,2.8c0,0.4,0,0.9,0.1,1.3s0.1,0.9,0.3,1.5v0.3v0.1v0.1
					l0,0c0-0.1,0.1,0.3,0.1,0.3l0.3,0.6c0.3,0.4,0.7,1,1,1.3c1.3,1.2,2.7,1.9,3.9,2.7c1.2,0.7,2.4,1.2,3.4,1.8
					c2.1,1,3.7,1.6,4.9,2.1c1.2,0.4,1.8,0.6,1.8,0.6s-2.2-1.3-6-3.9c-0.9-0.6-1.9-1.3-3-2.2c-1-0.9-2.1-1.8-3-2.8
					c-0.3-0.3-0.1-0.3-0.3-0.6l-0.1-0.4l0,0l0,0l0,0v-0.1v-0.3c0-0.3,0-0.7,0-1c0-0.4,0.1-0.7,0.1-1.2c0.1-1.6,0.3-3.4,0.7-5.2
					c0.7-3.7,1.8-7.8,3.3-11.8c1.5-4.2,3.1-8.5,5.2-12.7c0.3-0.4,0.6-1.2,0.7-1.3s0.1-0.3,0.3-0.6l0.3-0.3h0.1c0.7-0.4,1.8-0.9,3-1
					c2.2-0.6,4.8-0.9,7.2-1c4.9-0.4,10.2-0.6,15.3-0.6c5.2,0,10.3,0.1,15.3,0.4c0.9,0.1,1.8,0.1,2.7,0.3c-0.3-1.2-0.4-2.4-0.4-3.7
					c-0.6,0-1.2-0.1-1.8-0.1C-130.2,111.6-135.5,111.6-140.7,111.6z"/>
			</g>
		</g>
		<g>
			<g>
				<path class="st0" d="M-108.3,132.9c1.5,4.2,2.5,8.1,3.3,11.8c0.1,0.9,0.3,1.8,0.4,2.7c0,0.4,0.1,0.9,0.1,1.3s0,0.7,0.1,1.2
					c0.1,0.7,0.1,1.6,0.1,2.4v0.3l0,0c0,0,0,0.1,0,0.3c-0.1,0.3-0.3,0.4-0.4,0.7c-1.8,2.1-4.2,3.9-6,5.1c-3.7,2.7-6,4-6,4
					s0.6-0.3,1.8-0.7c1.2-0.4,2.8-1.2,4.9-2.1c2.1-1,4.6-2.1,7.3-4.5c0.3-0.3,0.7-0.7,1-1c0.1-0.1,0.3-0.6,0.4-0.9l0.1-0.3v-0.1l0,0
					c0,0.1,0-0.1,0-0.1v-0.3c0.1-0.9,0.3-1.6,0.3-2.7c0-0.4,0-1,0-1.5s-0.1-0.9-0.1-1.5c-0.1-1-0.3-1.9-0.4-3
					c-0.7-3.7-1.8-7.5-3.1-11.5c-1.5-0.1-2.8-0.6-4.2-1C-108.6,132-108.5,132.5-108.3,132.9z"/>
			</g>
		</g>
		<g>
			<g>
				<path d="M-123,200.3c-0.9,0.7-1.6,1.6-2.4,2.4c-4.3,4.2-6.7,6.6-14.7,6.6h-0.7c-7.9,0-10.3-2.2-14.7-6.6
					c-0.7-0.7-1.5-1.5-2.4-2.2c-0.1-0.1-18.4-19.2-18.4-30.1h-3.6c0,12.4,18.6,31.8,19.5,32.7c0.9,0.7,1.6,1.5,2.4,2.2
					c4.5,4.3,7.8,7.5,17.2,7.5h0.7c9.4,0,12.7-3.1,17.2-7.5c0.7-0.7,1.5-1.5,2.4-2.4c0.7-0.7,19.5-20.2,19.5-32.7h-3.6
					C-104.6,181.2-122.9,200.2-123,200.3z"/>
			</g>
		</g>
		<g>
			<g>
				<path d="M-115.7,94.9c-1.5-0.6-3.3-1-4.9-1l-13.3-0.7c-5.2-0.1-8.7-0.1-13.2,0l-13.2,0.7c-6.4,0.3-12,4.5-14.1,10.5l-0.1,0.3
					l3.4,1v-0.1c1.5-4.5,5.8-7.8,10.9-8.1l13.2-0.7c4.3-0.1,7.8-0.1,12.9,0l13.2,0.7c0.7,0,1.6,0.1,2.4,0.4
					C-117.6,96.8-116.7,95.8-115.7,94.9z"/>
			</g>
		</g>
		<g>
			<g>
				<path d="M-127.2,186.6l-0.9-3.4c0,0-7.5,1.8-12.4,1.8c-5.1,0-12.4-1.8-12.4-1.8l-0.9,3.4c0.3,0.1,7.8,1.8,13.3,1.8
					C-135.2,188.4-127.5,186.6-127.2,186.6z"/>
			</g>
		</g>
		<g>
			<g>
				<path d="M-77.6,111.2c0-13.2-10.8-24-24-24c-12,0-22,8.8-23.7,20.4c-6.1-0.3-11.4-0.4-11.4-0.4h-7.8c0,0-22.6,0.4-30.1,2.1
					c-3.6,0.7-4.6,2.2-5.5,3.7c-0.9,1.6-8.1,28.6-7.2,42.6s20.7,12.9,20.7,12.9s8.4-3.3,22.8-3.3h6.4c14.4,0,22.8,3.3,22.8,3.3
					s19.8,1,20.7-12.9c0.3-5.7-0.6-13.6-1.9-21.1C-85.4,131.9-77.6,122.4-77.6,111.2z M-140.7,115.2c-5.2,0-10.3,0.1-15.3,0.6
					c-2.5,0.3-4.9,0.6-7.2,1c-1,0.3-2.2,0.6-3,1h-0.1l-0.3,0.3c-0.3,0.3-0.1,0.4-0.3,0.6c-0.1,0.3-0.4,0.9-0.7,1.3
					c-2.1,4.2-3.7,8.5-5.2,12.7c-1.3,4.2-2.5,8.2-3.3,11.8c-0.4,1.8-0.4,3.6-0.7,5.2c0,0.4-0.1,0.7-0.1,1.2s0,0.7,0,1v0.3v0.1l0,0
					l0,0l0,0l0.1,0.4c0.1,0.3,0.1,0.3,0.3,0.6c0.7,1,1.9,2.1,3,2.8c1,0.9,2.1,1.5,3,2.2c3.7,2.5,6,3.9,6,3.9s-0.6-0.3-1.8-0.6
					c-1.2-0.4-2.8-1-4.9-2.1c-1-0.4-2.2-1-3.4-1.8c-1.2-0.7-2.5-1.5-3.9-2.7c-0.3-0.3-0.7-0.9-1-1.3l-0.3-0.6c0,0-0.1-0.4-0.1-0.3
					l0,0v-0.1V153v-0.3c-0.1-0.4-0.1-0.9-0.3-1.5c0-0.4,0-0.9-0.1-1.3c-0.1-1,0-1.9,0.1-2.8c0.1-1,0.3-1.9,0.4-3
					c0.7-3.9,1.9-8.1,3.4-12.4c1.5-4.3,3.1-8.7,5.4-13.2c0.3-0.6,0.4-1,1-1.8c0.1-0.3,0.4-0.7,0.7-0.9l0.3-0.3l0,0
					c0.1-0.1-0.1,0.1,0.3-0.3l0.1-0.1l0.3-0.1c1.3-0.9,2.7-1.2,4-1.6c2.5-0.6,5.2-0.9,7.8-1.2c5.2-0.4,10.5-0.6,15.7-0.6
					c5.1,0,10,0.1,15.1,0.4c0,1.2,0.1,2.4,0.4,3.6h-0.1C-130.2,115.2-135.5,115.2-140.7,115.2z M-100.7,150c0,1-0.1,1.8-0.3,2.7v0.3
					c0,0,0,0.3,0,0.1l0,0v0.1l-0.1,0.3c-0.1,0.3-0.3,0.7-0.4,0.9c-0.3,0.4-0.6,0.9-1,1c-2.7,2.2-5.2,3.4-7.3,4.5
					c-2.1,1-3.7,1.6-4.9,2.1c-1.2,0.4-1.8,0.7-1.8,0.7s2.2-1.3,6-4c1.8-1.3,4.2-3,6-5.1c0.3-0.3,0.3-0.6,0.4-0.7
					c0.1-0.1,0-0.1,0-0.3l0,0v-0.3c0-0.9,0-1.8-0.1-2.4c0-0.4-0.1-0.7-0.1-1.2s-0.1-0.9-0.1-1.3c0-0.9-0.3-1.8-0.4-2.7
					c-0.6-3.3-1.6-6.7-2.8-10.3c1.3,0.3,2.7,0.6,4,0.7c1,3.1,1.8,6.1,2.4,9c0.1,1,0.3,1.9,0.4,3c0,0.4,0.1,0.9,0.1,1.5
					C-100.7,149-100.7,149.6-100.7,150z M-101.6,132.2c-11.5,0-21-9.4-21-21s9.4-21,21-21s21,9.4,21,21S-90.1,132.2-101.6,132.2z"/>
			</g>
		</g>
	</g>
	<g>
		<path d="M-90.8,99.4l-5.4,5.4c-1.6-0.7-3.4-1.2-5.2-1.2c-6.1,0-11.4,5.2-13.2,7c-0.3,0.4-0.3,1,0,1.3c1,1,3.3,3.3,6.1,4.9
			l-3.6,3.7l1.5,1.5l21.3-21.3L-90.8,99.4z M-101.1,109.5c-0.1,0-0.3,0-0.4,0c-1,0-1.8,0.7-1.8,1.8c0,0.1,0,0.3,0,0.4l-2.7,2.7
			c-0.6-0.9-0.9-1.9-0.9-3c0-3,2.4-5.4,5.4-5.4c1.2,0,2.2,0.3,3,0.9L-101.1,109.5z"/>
		<path d="M-88.4,110.6c-0.7-0.9-2.4-2.4-4.3-3.7l-3.6,3.6c0,0.3,0.1,0.6,0.1,0.9c0,3-2.4,5.4-5.4,5.4c-0.3,0-0.6,0-0.9-0.1
			l-2.1,2.1c0.9,0.3,1.9,0.4,3,0.4c6.1,0,11.4-5.1,13.2-7C-88,111.6-88,111-88.4,110.6z"/>
	</g>
</g>
<g>
	<g>
		<g>
			<g>
				<path class="st0" d="M-296.6,130.8c-2.6,0-5.2,0.1-7.9,0.3c-1.3,0.1-2.6,0.3-3.9,0.6c-0.7,0.1-1.3,0.4-2,0.8h-0.1l-0.1,0.1
					c-0.2,0.2-0.1,0.1-0.1,0.1l0,0l-0.1,0.1c-0.1,0.1-0.2,0.3-0.4,0.4c-0.2,0.4-0.4,0.6-0.5,0.9c-1.1,2.2-1.9,4.5-2.7,6.6
					c-0.7,2.2-1.3,4.2-1.7,6.2c-0.1,0.5-0.2,1-0.2,1.5c-0.1,0.4-0.1,1-0.1,1.4c0,0.2,0,0.4,0.1,0.7s0.1,0.4,0.1,0.7v0.1v0.1v0.1l0,0
					c0-0.1,0.1,0.1,0.1,0.1l0.1,0.3c0.1,0.2,0.4,0.5,0.5,0.7c0.7,0.6,1.3,1,1.9,1.3s1.2,0.6,1.7,0.9c1,0.5,1.9,0.8,2.5,1
					c0.6,0.2,0.9,0.3,0.9,0.3s-1.1-0.7-3-1.9c-0.4-0.3-1-0.7-1.5-1.1s-1-0.9-1.5-1.4c-0.1-0.1-0.1-0.1-0.1-0.3l-0.1-0.2l0,0l0,0l0,0
					v-0.1v-0.1c0-0.1,0-0.4,0-0.5c0-0.2,0.1-0.4,0.1-0.6c0.1-0.8,0.1-1.7,0.4-2.6c0.4-1.9,0.9-3.9,1.6-5.9c0.7-2.1,1.6-4.3,2.6-6.4
					c0.1-0.2,0.3-0.6,0.4-0.7s0.1-0.1,0.1-0.3l0.1-0.1h0.1c0.4-0.2,0.9-0.4,1.5-0.5c1.1-0.3,2.4-0.4,3.6-0.5
					c2.5-0.2,5.1-0.3,7.6-0.3c2.6,0,5.2,0.1,7.6,0.2c0.4,0.1,0.9,0.1,1.3,0.1c-0.1-0.6-0.2-1.2-0.2-1.9c-0.3,0-0.6-0.1-0.9-0.1
					C-291.4,130.8-294,130.8-296.6,130.8z"/>
			</g>
		</g>
		<g>
			<g>
				<path class="st0" d="M-280.4,141.5c0.7,2.1,1.3,4,1.6,5.9c0.1,0.4,0.1,0.9,0.2,1.3c0,0.2,0.1,0.4,0.1,0.7s0,0.4,0.1,0.6
					c0.1,0.4,0.1,0.8,0.1,1.2v0.1l0,0c0,0,0,0.1,0,0.1c-0.1,0.1-0.1,0.2-0.2,0.4c-0.9,1-2.1,1.9-3,2.5c-1.9,1.3-3,2-3,2
					s0.3-0.1,0.9-0.4c0.6-0.2,1.4-0.6,2.5-1c1-0.5,2.3-1,3.7-2.2c0.1-0.1,0.4-0.4,0.5-0.5c0.1-0.1,0.1-0.3,0.2-0.4l0.1-0.1v-0.1l0,0
					c0,0.1,0-0.1,0-0.1v-0.1c0.1-0.4,0.1-0.8,0.1-1.3c0-0.2,0-0.5,0-0.7c0-0.2-0.1-0.4-0.1-0.7c-0.1-0.5-0.1-1-0.2-1.5
					c-0.4-1.9-0.9-3.7-1.6-5.8c-0.7-0.1-1.4-0.3-2.1-0.5C-280.6,141-280.5,141.2-280.4,141.5z"/>
			</g>
		</g>
		<g>
			<g>
				<path d="M-287.8,175.2c-0.4,0.4-0.8,0.8-1.2,1.2c-2.2,2.1-3.4,3.3-7.3,3.3h-0.4c-4,0-5.2-1.1-7.3-3.3c-0.4-0.4-0.7-0.7-1.2-1.1
					c-0.1-0.1-9.2-9.6-9.2-15.1h-1.8c0,6.2,9.3,15.9,9.7,16.3c0.4,0.4,0.8,0.7,1.2,1.1c2.2,2.2,3.9,3.7,8.6,3.7h0.4
					c4.7,0,6.4-1.6,8.6-3.7c0.4-0.4,0.7-0.7,1.2-1.2c0.4-0.4,9.7-10.1,9.7-16.3h-1.8C-278.5,165.6-287.7,175.1-287.8,175.2z"/>
			</g>
		</g>
		<g>
			<g>
				<path d="M-284.1,122.4c-0.7-0.3-1.6-0.5-2.5-0.5l-6.7-0.4c-2.6-0.1-4.3-0.1-6.6,0l-6.6,0.4c-3.2,0.1-6,2.2-7,5.2l-0.1,0.1
					l1.7,0.5v-0.1c0.7-2.2,2.9-3.9,5.5-4l6.6-0.4c2.2-0.1,3.9-0.1,6.4,0l6.6,0.4c0.4,0,0.8,0.1,1.2,0.2
					C-285.1,123.4-284.6,122.9-284.1,122.4z"/>
			</g>
		</g>
		<g>
			<g>
				<path d="M-289.9,168.3l-0.4-1.7c0,0-3.7,0.9-6.2,0.9c-2.5,0-6.2-0.9-6.2-0.9l-0.4,1.7c0.1,0.1,3.9,0.9,6.7,0.9
					C-293.8,169.2-290,168.3-289.9,168.3z"/>
			</g>
		</g>
		<g>
			<g>
				<path d="M-265.1,130.6c0-6.6-5.4-12-12-12c-6,0-11,4.4-11.8,10.2c-3.1-0.1-5.7-0.2-5.7-0.2h-3.9c0,0-11.3,0.2-15.1,1
					c-1.8,0.4-2.3,1.1-2.8,1.9c-0.4,0.8-4,14.3-3.6,21.3s10.3,6.4,10.3,6.4s4.2-1.6,11.4-1.6h3.2c7.2,0,11.4,1.6,11.4,1.6
					s9.9,0.5,10.3-6.4c0.1-2.8-0.3-6.8-1-10.6C-269,140.9-265.1,136.2-265.1,130.6z M-296.6,132.6c-2.6,0-5.2,0.1-7.6,0.3
					c-1.3,0.1-2.5,0.3-3.6,0.5c-0.5,0.1-1.1,0.3-1.5,0.5h-0.1l-0.1,0.1c-0.1,0.1-0.1,0.2-0.1,0.3c-0.1,0.1-0.2,0.4-0.4,0.7
					c-1,2.1-1.9,4.3-2.6,6.4c-0.7,2.1-1.3,4.1-1.6,5.9c-0.2,0.9-0.2,1.8-0.4,2.6c0,0.2-0.1,0.4-0.1,0.6s0,0.4,0,0.5v0.1v0.1l0,0l0,0
					l0,0l0.1,0.2c0.1,0.1,0.1,0.1,0.1,0.3c0.4,0.5,1,1,1.5,1.4c0.5,0.4,1,0.7,1.5,1.1c1.9,1.3,3,1.9,3,1.9s-0.3-0.1-0.9-0.3
					c-0.6-0.2-1.4-0.5-2.5-1c-0.5-0.2-1.1-0.5-1.7-0.9s-1.3-0.7-1.9-1.3c-0.1-0.1-0.4-0.4-0.5-0.7l-0.1-0.3c0,0-0.1-0.2-0.1-0.1l0,0
					v-0.1v-0.1v-0.1c-0.1-0.2-0.1-0.4-0.1-0.7c0-0.2,0-0.4-0.1-0.7c-0.1-0.5,0-1,0.1-1.4c0.1-0.5,0.1-1,0.2-1.5c0.4-1.9,1-4,1.7-6.2
					c0.7-2.2,1.6-4.3,2.7-6.6c0.1-0.3,0.2-0.5,0.5-0.9c0.1-0.1,0.2-0.4,0.4-0.4l0.1-0.1l0,0c0.1-0.1-0.1,0.1,0.1-0.1l0.1-0.1
					l0.1-0.1c0.7-0.4,1.3-0.6,2-0.8c1.3-0.3,2.6-0.4,3.9-0.6c2.6-0.2,5.2-0.3,7.9-0.3c2.5,0,5,0.1,7.6,0.2c0,0.6,0.1,1.2,0.2,1.8
					h-0.1C-291.4,132.6-294,132.6-296.6,132.6z M-276.6,150c0,0.5-0.1,0.9-0.1,1.3v0.1c0,0,0,0.1,0,0.1l0,0v0.1l-0.1,0.1
					c-0.1,0.1-0.1,0.4-0.2,0.4c-0.1,0.2-0.3,0.4-0.5,0.5c-1.3,1.1-2.6,1.7-3.7,2.2c-1,0.5-1.9,0.8-2.5,1s-0.9,0.4-0.9,0.4
					s1.1-0.7,3-2c0.9-0.7,2.1-1.5,3-2.5c0.1-0.1,0.1-0.3,0.2-0.4s0-0.1,0-0.1l0,0v-0.1c0-0.4,0-0.9-0.1-1.2c0-0.2-0.1-0.4-0.1-0.6
					s-0.1-0.4-0.1-0.7c0-0.4-0.1-0.9-0.2-1.3c-0.3-1.6-0.8-3.4-1.4-5.2c0.7,0.1,1.3,0.3,2,0.4c0.5,1.6,0.9,3.1,1.2,4.5
					c0.1,0.5,0.1,1,0.2,1.5c0,0.2,0.1,0.4,0.1,0.7C-276.6,149.5-276.6,149.8-276.6,150z M-277,141.1c-5.8,0-10.5-4.7-10.5-10.5
					s4.7-10.5,10.5-10.5c5.8,0,10.5,4.7,10.5,10.5S-271.3,141.1-277,141.1z"/>
			</g>
		</g>
	</g>
	<g>
		<path d="M-271.6,124.7l-2.7,2.7c-0.8-0.4-1.7-0.6-2.6-0.6c-3.1,0-5.7,2.6-6.6,3.5c-0.1,0.2-0.1,0.5,0,0.7c0.5,0.5,1.6,1.6,3.1,2.5
			l-1.8,1.9l0.7,0.7l10.6-10.6L-271.6,124.7z M-276.8,129.8c-0.1,0-0.1,0-0.2,0c-0.5,0-0.9,0.4-0.9,0.9c0,0.1,0,0.1,0,0.2l-1.3,1.3
			c-0.3-0.4-0.4-1-0.4-1.5c0-1.5,1.2-2.7,2.7-2.7c0.6,0,1.1,0.1,1.5,0.4L-276.8,129.8z"/>
		<path d="M-270.4,130.3c-0.4-0.4-1.2-1.2-2.2-1.9l-1.8,1.8c0,0.1,0.1,0.3,0.1,0.4c0,1.5-1.2,2.7-2.7,2.7c-0.1,0-0.3,0-0.4-0.1l-1,1
			c0.4,0.1,1,0.2,1.5,0.2c3.1,0,5.7-2.5,6.6-3.5C-270.2,130.8-270.2,130.5-270.4,130.3z"/>
	</g>
</g>
</svg>
